<?xml version="1.0" encoding="UTF-8" standalone="no"?>
<!DOCTYPE svg PUBLIC "-//W3C//DTD SVG 1.1//EN"
 "http://www.w3.org/Graphics/SVG/1.1/DTD/svg11.dtd">
<!-- Generated by graphviz version 2.44.1 (20200629.0846)
 -->
<!-- Title: G Pages: 1 -->
<svg width="662pt" height="610pt"
 viewBox="0.00 0.00 661.63 609.90" xmlns="http://www.w3.org/2000/svg" xmlns:xlink="http://www.w3.org/1999/xlink">
<g id="graph0" class="graph" transform="scale(1 1) rotate(0) translate(4 605.9)">
<title>G</title><style>.edge>path:hover{stroke-width:8}</style>
<polygon fill="white" stroke="transparent" points="-4,4 -4,-605.9 657.63,-605.9 657.63,4 -4,4"/>
<!-- src_adls_management -->
<g id="node1" class="node">
<title>src_adls_management</title><style>.edge>path:hover{stroke-width:8}</style>
<ellipse fill="#db2f2f" stroke="black" cx="67.88" cy="-347.94" rx="67.76" ry="21.43"/>
<text text-anchor="middle" x="67.88" y="-350.94" font-family="Helvetica,sans-Serif" font-size="10.00" fill="#ffffff">src.</text>
<text text-anchor="middle" x="67.88" y="-339.94" font-family="Helvetica,sans-Serif" font-size="10.00" fill="#ffffff">adls_management</text>
</g>
<!-- src_batch_process_phases_from_to_phase -->
<g id="node4" class="node">
<title>src_batch_process_phases_from_to_phase</title><style>.edge>path:hover{stroke-width:8}</style>
<ellipse fill="#883a3a" stroke="black" cx="435.88" cy="-28.99" rx="84.71" ry="28.98"/>
<text text-anchor="middle" x="435.88" y="-37.49" font-family="Helvetica,sans-Serif" font-size="10.00" fill="#ffffff">src.</text>
<text text-anchor="middle" x="435.88" y="-26.49" font-family="Helvetica,sans-Serif" font-size="10.00" fill="#ffffff">batch_process_phases.</text>
<text text-anchor="middle" x="435.88" y="-15.49" font-family="Helvetica,sans-Serif" font-size="10.00" fill="#ffffff">from_to_phase</text>
</g>
<!-- src_adls_management&#45;&gt;src_batch_process_phases_from_to_phase -->
<g id="edge1" class="edge">
<title>src_adls_management&#45;&gt;src_batch_process_phases_from_to_phase</title><style>.edge>path:hover{stroke-width:8}</style>
<path fill="none" stroke="black" d="M89.76,-327.72C109.83,-309.69 139.98,-281.58 163.88,-254.96"/>
<path fill="none" stroke="black" d="M163.88,-252.96C201.64,-210.89 157.3,-168.15 199.88,-130.98 239.85,-96.1 415.08,-143.78 435.88,-94.98"/>
<path fill="none" stroke="black" d="M435.88,-93.98C439.14,-85.91 440.41,-76.79 440.59,-68.01"/>
<polygon fill="#db2f2f" stroke="black" points="444.09,-67.87 440.37,-57.95 437.09,-68.03 444.09,-67.87"/>
</g>
<!-- src_interface_file_management_interface_file_handling -->
<g id="node6" class="node">
<title>src_interface_file_management_interface_file_handling</title><style>.edge>path:hover{stroke-width:8}</style>
<ellipse fill="#993333" stroke="black" cx="305.88" cy="-159.97" rx="96.75" ry="28.98"/>
<text text-anchor="middle" x="305.88" y="-168.47" font-family="Helvetica,sans-Serif" font-size="10.00" fill="#ffffff">src.</text>
<text text-anchor="middle" x="305.88" y="-157.47" font-family="Helvetica,sans-Serif" font-size="10.00" fill="#ffffff">interface_file_management.</text>
<text text-anchor="middle" x="305.88" y="-146.47" font-family="Helvetica,sans-Serif" font-size="10.00" fill="#ffffff">interface_file_handling</text>
</g>
<!-- src_adls_management&#45;&gt;src_interface_file_management_interface_file_handling -->
<g id="edge2" class="edge">
<title>src_adls_management&#45;&gt;src_interface_file_management_interface_file_handling</title><style>.edge>path:hover{stroke-width:8}</style>
<path fill="none" stroke="black" d="M163.88,-252.96C174.83,-240.76 175.13,-235.26 187.88,-224.97 204.86,-211.25 225.21,-199 244.2,-188.99"/>
<polygon fill="#db2f2f" stroke="black" points="245.81,-192.09 253.09,-184.4 242.6,-185.87 245.81,-192.09"/>
</g>
<!-- src_adls_management_connection -->
<g id="node2" class="node">
<title>src_adls_management_connection</title><style>.edge>path:hover{stroke-width:8}</style>
<ellipse fill="#bc2f2f" stroke="black" cx="299.88" cy="-347.94" rx="70.01" ry="28.98"/>
<text text-anchor="middle" x="299.88" y="-356.44" font-family="Helvetica,sans-Serif" font-size="10.00" fill="#ffffff">src.</text>
<text text-anchor="middle" x="299.88" y="-345.44" font-family="Helvetica,sans-Serif" font-size="10.00" fill="#ffffff">adls_management.</text>
<text text-anchor="middle" x="299.88" y="-334.44" font-family="Helvetica,sans-Serif" font-size="10.00" fill="#ffffff">connection</text>
</g>
<!-- src_adls_management_folder_management -->
<g id="node3" class="node">
<title>src_adls_management_folder_management</title><style>.edge>path:hover{stroke-width:8}</style>
<ellipse fill="#993333" stroke="black" cx="301.88" cy="-253.96" rx="72.25" ry="28.98"/>
<text text-anchor="middle" x="301.88" y="-262.46" font-family="Helvetica,sans-Serif" font-size="10.00" fill="#ffffff">src.</text>
<text text-anchor="middle" x="301.88" y="-251.46" font-family="Helvetica,sans-Serif" font-size="10.00" fill="#ffffff">adls_management.</text>
<text text-anchor="middle" x="301.88" y="-240.46" font-family="Helvetica,sans-Serif" font-size="10.00" fill="#ffffff">folder_management</text>
</g>
<!-- src_adls_management_connection&#45;&gt;src_adls_management_folder_management -->
<g id="edge3" class="edge">
<title>src_adls_management_connection&#45;&gt;src_adls_management_folder_management</title><style>.edge>path:hover{stroke-width:8}</style>
<path fill="none" stroke="black" d="M300.49,-318.84C300.67,-310.8 300.86,-301.9 301.05,-293.36"/>
<polygon fill="#bc2f2f" stroke="black" points="304.55,-293.27 301.27,-283.2 297.55,-293.12 304.55,-293.27"/>
</g>
<!-- src_adls_management_connection&#45;&gt;src_interface_file_management_interface_file_handling -->
<g id="edge4" class="edge">
<title>src_adls_management_connection&#45;&gt;src_interface_file_management_interface_file_handling</title><style>.edge>path:hover{stroke-width:8}</style>
<path fill="none" stroke="black" d="M251.87,-326.71C222.29,-310.81 191.78,-286.15 201.88,-254.96"/>
</g>
<!-- src_adls_management_folder_management&#45;&gt;src_batch_process_phases_from_to_phase -->
<g id="edge5" class="edge">
<title>src_adls_management_folder_management&#45;&gt;src_batch_process_phases_from_to_phase</title><style>.edge>path:hover{stroke-width:8}</style>
<path fill="none" stroke="black" d="M358.85,-236.08C392.46,-222.25 429.64,-198.7 435.88,-160.97"/>
<path fill="none" stroke="black" d="M435.88,-158.97C440.53,-130.92 424.73,-121.14 435.88,-94.98"/>
</g>
<!-- src_interface_file_management -->
<g id="node5" class="node">
<title>src_interface_file_management</title><style>.edge>path:hover{stroke-width:8}</style>
<ellipse fill="#c24747" stroke="black" cx="558.88" cy="-159.97" rx="94.51" ry="21.43"/>
<text text-anchor="middle" x="558.88" y="-162.97" font-family="Helvetica,sans-Serif" font-size="10.00" fill="#ffffff">src.</text>
<text text-anchor="middle" x="558.88" y="-151.97" font-family="Helvetica,sans-Serif" font-size="10.00" fill="#ffffff">interface_file_management</text>
</g>
<!-- src_interface_file_management&#45;&gt;src_batch_process_phases_from_to_phase -->
<g id="edge6" class="edge">
<title>src_interface_file_management&#45;&gt;src_batch_process_phases_from_to_phase</title><style>.edge>path:hover{stroke-width:8}</style>
<path fill="none" stroke="black" d="M505.7,-142.37C469.41,-129.43 429.04,-111.04 435.88,-94.98"/>
</g>
<!-- src_interface_file_management_interface_file_handling&#45;&gt;src_batch_process_phases_from_to_phase -->
<g id="edge7" class="edge">
<title>src_interface_file_management_interface_file_handling&#45;&gt;src_batch_process_phases_from_to_phase</title><style>.edge>path:hover{stroke-width:8}</style>
<path fill="none" stroke="black" d="M381.92,-142C404.68,-132.5 426.16,-117.78 435.88,-94.98"/>
</g>
<!-- src_utils -->
<g id="node7" class="node">
<title>src_utils</title><style>.edge>path:hover{stroke-width:8}</style>
<ellipse fill="#f31616" stroke="black" cx="415.88" cy="-478.92" rx="30.04" ry="18"/>
<text text-anchor="middle" x="415.88" y="-476.42" font-family="Helvetica,sans-Serif" font-size="10.00" fill="#ffffff">src.utils</text>
</g>
<!-- src_utils&#45;&gt;src_adls_management_connection -->
<g id="edge8" class="edge">
<title>src_utils&#45;&gt;src_adls_management_connection</title><style>.edge>path:hover{stroke-width:8}</style>
<path fill="none" stroke="black" d="M435.88,-412.93C428.73,-385.37 402.96,-369.67 375.75,-360.74"/>
<polygon fill="#f31616" stroke="black" points="376.67,-357.37 366.09,-357.86 374.67,-364.07 376.67,-357.37"/>
<path fill="none" stroke="black" d="M426.15,-461.74C433.05,-448.88 440.15,-430.38 435.88,-413.93"/>
</g>
<!-- src_utils&#45;&gt;src_adls_management_folder_management -->
<g id="edge9" class="edge">
<title>src_utils&#45;&gt;src_adls_management_folder_management</title><style>.edge>path:hover{stroke-width:8}</style>
<path fill="none" stroke="black" d="M435.88,-412.93C428.74,-385.4 444.55,-376.03 435.88,-348.94"/>
<path fill="none" stroke="black" d="M435.88,-346.94C425.48,-314.44 395.02,-292.12 365.75,-277.62"/>
<polygon fill="#f31616" stroke="black" points="366.86,-274.27 356.32,-273.18 363.88,-280.61 366.86,-274.27"/>
</g>
<!-- src_utils&#45;&gt;src_batch_process_phases_from_to_phase -->
<g id="edge10" class="edge">
<title>src_utils&#45;&gt;src_batch_process_phases_from_to_phase</title><style>.edge>path:hover{stroke-width:8}</style>
<path fill="none" stroke="black" d="M435.88,-252.96C423.7,-213.93 429.2,-201.31 435.88,-160.97"/>
</g>
<!-- src_utils&#45;&gt;src_interface_file_management_interface_file_handling -->
<g id="edge11" class="edge">
<title>src_utils&#45;&gt;src_interface_file_management_interface_file_handling</title><style>.edge>path:hover{stroke-width:8}</style>
<path fill="none" stroke="black" d="M435.88,-252.96C426.67,-223.44 400.69,-202.15 374.35,-187.54"/>
<polygon fill="#f31616" stroke="black" points="375.91,-184.41 365.43,-182.84 372.64,-190.6 375.91,-184.41"/>
<path fill="none" stroke="black" d="M435.88,-346.94C423.42,-308 448.06,-293.98 435.88,-254.96"/>
</g>
<!-- src_utils_messages -->
<g id="node8" class="node">
<title>src_utils_messages</title><style>.edge>path:hover{stroke-width:8}</style>
<ellipse fill="#e72222" stroke="black" cx="260.88" cy="-572.91" rx="43.68" ry="28.98"/>
<text text-anchor="middle" x="260.88" y="-581.41" font-family="Helvetica,sans-Serif" font-size="10.00" fill="#ffffff">src.</text>
<text text-anchor="middle" x="260.88" y="-570.41" font-family="Helvetica,sans-Serif" font-size="10.00" fill="#ffffff">utils.</text>
<text text-anchor="middle" x="260.88" y="-559.41" font-family="Helvetica,sans-Serif" font-size="10.00" fill="#ffffff">messages</text>
</g>
<!-- src_utils_messages&#45;&gt;src_adls_management_folder_management -->
<g id="edge12" class="edge">
<title>src_utils_messages&#45;&gt;src_adls_management_folder_management</title><style>.edge>path:hover{stroke-width:8}</style>
<path fill="none" stroke="black" d="M282.38,-547.32C311.32,-512.35 361.22,-444.9 378.88,-376.93 385.36,-351.99 389.83,-342.28 378.88,-318.95 372.58,-305.52 361.93,-293.94 350.53,-284.46"/>
<polygon fill="#e72222" stroke="black" points="352.59,-281.63 342.56,-278.24 348.28,-287.15 352.59,-281.63"/>
</g>
<!-- src_utils_messages&#45;&gt;src_batch_process_phases_from_to_phase -->
<g id="edge13" class="edge">
<title>src_utils_messages&#45;&gt;src_batch_process_phases_from_to_phase</title><style>.edge>path:hover{stroke-width:8}</style>
<path fill="none" stroke="black" d="M304.72,-569.74C349.19,-565.1 416.75,-550.89 454.88,-507.91 483.17,-476.04 473.88,-456.55 473.88,-413.93 473.88,-413.93 473.88,-413.93 473.88,-346.94 473.88,-291.69 461.12,-279.06 449.88,-224.97 443.96,-196.46 431.13,-189.7 435.88,-160.97"/>
</g>
<!-- src_utils_messages&#45;&gt;src_interface_file_management_interface_file_handling -->
<g id="edge14" class="edge">
<title>src_utils_messages&#45;&gt;src_interface_file_management_interface_file_handling</title><style>.edge>path:hover{stroke-width:8}</style>
<path fill="none" stroke="black" d="M201.88,-252.96C210.14,-227.45 230.86,-206.74 251.65,-191.48"/>
<polygon fill="#e72222" stroke="black" points="253.72,-194.3 259.9,-185.69 249.7,-188.57 253.72,-194.3"/>
<path fill="none" stroke="black" d="M240.48,-546.94C231.96,-535.56 222.52,-521.6 215.88,-507.91 166.78,-406.59 167.2,-362.08 201.88,-254.96"/>
</g>
<!-- src_utils_settings -->
<g id="node9" class="node">
<title>src_utils_settings</title><style>.edge>path:hover{stroke-width:8}</style>
<ellipse fill="#c82323" stroke="black" cx="260.88" cy="-478.92" rx="36.12" ry="28.98"/>
<text text-anchor="middle" x="260.88" y="-487.42" font-family="Helvetica,sans-Serif" font-size="10.00" fill="#ffffff">src.</text>
<text text-anchor="middle" x="260.88" y="-476.42" font-family="Helvetica,sans-Serif" font-size="10.00" fill="#ffffff">utils.</text>
<text text-anchor="middle" x="260.88" y="-465.42" font-family="Helvetica,sans-Serif" font-size="10.00" fill="#ffffff">settings</text>
</g>
<!-- src_utils_messages&#45;&gt;src_utils_settings -->
<g id="edge15" class="edge">
<title>src_utils_messages&#45;&gt;src_utils_settings</title><style>.edge>path:hover{stroke-width:8}</style>
<path fill="none" stroke="black" d="M260.88,-543.81C260.88,-535.77 260.88,-526.87 260.88,-518.32"/>
<polygon fill="#e72222" stroke="black" points="264.38,-518.16 260.88,-508.16 257.38,-518.16 264.38,-518.16"/>
</g>
<!-- src_utils_settings&#45;&gt;src_adls_management_connection -->
<g id="edge16" class="edge">
<title>src_utils_settings&#45;&gt;src_adls_management_connection</title><style>.edge>path:hover{stroke-width:8}</style>
<path fill="none" stroke="black" d="M201.88,-412.93C200.97,-392.87 215.37,-378.76 233.39,-369"/>
<polygon fill="#c82323" stroke="black" points="235.03,-372.09 242.48,-364.55 231.96,-365.8 235.03,-372.09"/>
</g>
<!-- src_utils_settings&#45;&gt;src_adls_management_folder_management -->
<g id="edge17" class="edge">
<title>src_utils_settings&#45;&gt;src_adls_management_folder_management</title><style>.edge>path:hover{stroke-width:8}</style>
<path fill="none" stroke="black" d="M201.88,-346.94C208.54,-320.27 229.85,-298.82 251.1,-283.36"/>
<polygon fill="#c82323" stroke="black" points="253.3,-286.1 259.53,-277.53 249.32,-280.35 253.3,-286.1"/>
</g>
<!-- src_utils_settings&#45;&gt;src_interface_file_management_interface_file_handling -->
<g id="edge18" class="edge">
<title>src_utils_settings&#45;&gt;src_interface_file_management_interface_file_handling</title><style>.edge>path:hover{stroke-width:8}</style>
<path fill="none" stroke="black" d="M201.88,-346.94C211.78,-307.27 189.29,-293.85 201.88,-254.96"/>
<path fill="none" stroke="black" d="M201.88,-412.93C200.59,-384.52 195,-376.53 201.88,-348.94"/>
<path fill="none" stroke="black" d="M232.38,-460.68C217.74,-449.5 202.77,-433.4 201.88,-413.93"/>
</g>
</g>
</svg>
