<?xml version="1.0" encoding="UTF-8" standalone="no"?>
<!DOCTYPE svg PUBLIC "-//W3C//DTD SVG 1.1//EN"
 "http://www.w3.org/Graphics/SVG/1.1/DTD/svg11.dtd">
<!-- Generated by graphviz version 2.44.1 (20200629.0846)
 -->
<!-- Title: G Pages: 1 -->
<svg width="418pt" height="516pt"
 viewBox="0.00 0.00 417.89 515.91" xmlns="http://www.w3.org/2000/svg" xmlns:xlink="http://www.w3.org/1999/xlink">
<g id="graph0" class="graph" transform="scale(1 1) rotate(0) translate(4 511.91)">
<title>G</title><style>.edge>path:hover{stroke-width:8}</style>
<polygon fill="white" stroke="transparent" points="-4,4 -4,-511.91 413.89,-511.91 413.89,4 -4,4"/>
<!-- src_adls_management -->
<g id="node1" class="node">
<title>src_adls_management</title><style>.edge>path:hover{stroke-width:8}</style>
<ellipse fill="#db2f2f" stroke="black" cx="67.88" cy="-478.92" rx="67.76" ry="21.43"/>
<text text-anchor="middle" x="67.88" y="-481.92" font-family="Helvetica,sans-Serif" font-size="10.00" fill="#ffffff">src.</text>
<text text-anchor="middle" x="67.88" y="-470.92" font-family="Helvetica,sans-Serif" font-size="10.00" fill="#ffffff">adls_management</text>
</g>
<!-- src_interface_file_management_interface_file_handling -->
<g id="node5" class="node">
<title>src_interface_file_management_interface_file_handling</title><style>.edge>path:hover{stroke-width:8}</style>
<ellipse fill="#8f3d3d" stroke="black" cx="222.88" cy="-28.99" rx="96.75" ry="28.98"/>
<text text-anchor="middle" x="222.88" y="-37.49" font-family="Helvetica,sans-Serif" font-size="10.00" fill="#ffffff">src.</text>
<text text-anchor="middle" x="222.88" y="-26.49" font-family="Helvetica,sans-Serif" font-size="10.00" fill="#ffffff">interface_file_management.</text>
<text text-anchor="middle" x="222.88" y="-15.49" font-family="Helvetica,sans-Serif" font-size="10.00" fill="#ffffff">interface_file_handling</text>
</g>
<!-- src_adls_management&#45;&gt;src_interface_file_management_interface_file_handling -->
<g id="edge1" class="edge">
<title>src_adls_management&#45;&gt;src_interface_file_management_interface_file_handling</title><style>.edge>path:hover{stroke-width:8}</style>
<path fill="none" stroke="black" d="M67.88,-412.93C90.39,-367.97 83.83,-237.59 91.88,-187.97 96.54,-159.23 96.11,-151.4 105.88,-123.97"/>
<path fill="none" stroke="black" d="M63.26,-457.75C61.31,-444.54 60.87,-427.32 67.88,-413.93"/>
<path fill="none" stroke="black" d="M105.88,-121.97C114.53,-94.54 137.79,-73.57 161.31,-58.63"/>
<polygon fill="#db2f2f" stroke="black" points="163.21,-61.57 169.96,-53.4 159.59,-55.58 163.21,-61.57"/>
</g>
<!-- src_utils_settings -->
<g id="node7" class="node">
<title>src_utils_settings</title><style>.edge>path:hover{stroke-width:8}</style>
<ellipse fill="#c82323" stroke="black" cx="242.88" cy="-347.94" rx="36.12" ry="28.98"/>
<text text-anchor="middle" x="242.88" y="-356.44" font-family="Helvetica,sans-Serif" font-size="10.00" fill="#ffffff">src.</text>
<text text-anchor="middle" x="242.88" y="-345.44" font-family="Helvetica,sans-Serif" font-size="10.00" fill="#ffffff">utils.</text>
<text text-anchor="middle" x="242.88" y="-334.44" font-family="Helvetica,sans-Serif" font-size="10.00" fill="#ffffff">settings</text>
</g>
<!-- src_adls_management&#45;&gt;src_utils_settings -->
<g id="edge2" class="edge">
<title>src_adls_management&#45;&gt;src_utils_settings</title><style>.edge>path:hover{stroke-width:8}</style>
<path fill="none" stroke="black" d="M67.88,-412.93C68.28,-412.15 148.79,-382.93 200.46,-364.25"/>
<polygon fill="#db2f2f" stroke="black" points="201.85,-367.47 210.06,-360.78 199.47,-360.89 201.85,-367.47"/>
</g>
<!-- src_adls_management_connection -->
<g id="node2" class="node">
<title>src_adls_management_connection</title><style>.edge>path:hover{stroke-width:8}</style>
<ellipse fill="#bc2f2f" stroke="black" cx="203.88" cy="-216.96" rx="70.01" ry="28.98"/>
<text text-anchor="middle" x="203.88" y="-225.46" font-family="Helvetica,sans-Serif" font-size="10.00" fill="#ffffff">src.</text>
<text text-anchor="middle" x="203.88" y="-214.46" font-family="Helvetica,sans-Serif" font-size="10.00" fill="#ffffff">adls_management.</text>
<text text-anchor="middle" x="203.88" y="-203.46" font-family="Helvetica,sans-Serif" font-size="10.00" fill="#ffffff">connection</text>
</g>
<!-- src_adls_management_folder_management -->
<g id="node3" class="node">
<title>src_adls_management_folder_management</title><style>.edge>path:hover{stroke-width:8}</style>
<ellipse fill="#8f3d3d" stroke="black" cx="222.88" cy="-122.97" rx="72.25" ry="28.98"/>
<text text-anchor="middle" x="222.88" y="-131.47" font-family="Helvetica,sans-Serif" font-size="10.00" fill="#ffffff">src.</text>
<text text-anchor="middle" x="222.88" y="-120.47" font-family="Helvetica,sans-Serif" font-size="10.00" fill="#ffffff">adls_management.</text>
<text text-anchor="middle" x="222.88" y="-109.47" font-family="Helvetica,sans-Serif" font-size="10.00" fill="#ffffff">folder_management</text>
</g>
<!-- src_adls_management_connection&#45;&gt;src_adls_management_folder_management -->
<g id="edge3" class="edge">
<title>src_adls_management_connection&#45;&gt;src_adls_management_folder_management</title><style>.edge>path:hover{stroke-width:8}</style>
<path fill="none" stroke="black" d="M209.69,-187.86C211.38,-179.66 213.26,-170.56 215.06,-161.85"/>
<polygon fill="#bc2f2f" stroke="black" points="218.52,-162.4 217.11,-151.9 211.66,-160.98 218.52,-162.4"/>
</g>
<!-- src_adls_management_connection&#45;&gt;src_interface_file_management_interface_file_handling -->
<g id="edge4" class="edge">
<title>src_adls_management_connection&#45;&gt;src_interface_file_management_interface_file_handling</title><style>.edge>path:hover{stroke-width:8}</style>
<path fill="none" stroke="black" d="M155.64,-195.71C125.69,-179.72 94.84,-154.97 105.88,-123.97"/>
</g>
<!-- src_adls_management_messages -->
<g id="node4" class="node">
<title>src_adls_management_messages</title><style>.edge>path:hover{stroke-width:8}</style>
<ellipse fill="#db2f2f" stroke="black" cx="339.88" cy="-478.92" rx="70.01" ry="28.98"/>
<text text-anchor="middle" x="339.88" y="-487.42" font-family="Helvetica,sans-Serif" font-size="10.00" fill="#ffffff">src.</text>
<text text-anchor="middle" x="339.88" y="-476.42" font-family="Helvetica,sans-Serif" font-size="10.00" fill="#ffffff">adls_management.</text>
<text text-anchor="middle" x="339.88" y="-465.42" font-family="Helvetica,sans-Serif" font-size="10.00" fill="#ffffff">messages</text>
</g>
<!-- src_adls_management_messages&#45;&gt;src_adls_management_folder_management -->
<g id="edge5" class="edge">
<title>src_adls_management_messages&#45;&gt;src_adls_management_folder_management</title><style>.edge>path:hover{stroke-width:8}</style>
<path fill="none" stroke="black" d="M339.88,-412.93C312.73,-330.64 363.7,-301.28 339.88,-217.96"/>
<path fill="none" stroke="black" d="M339.88,-215.96C330.35,-186.85 304.57,-164.98 279.62,-149.88"/>
<polygon fill="#db2f2f" stroke="black" points="281.27,-146.79 270.86,-144.83 277.77,-152.86 281.27,-146.79"/>
</g>
<!-- src_adls_management_messages&#45;&gt;src_interface_file_management_interface_file_handling -->
<g id="edge6" class="edge">
<title>src_adls_management_messages&#45;&gt;src_interface_file_management_interface_file_handling</title><style>.edge>path:hover{stroke-width:8}</style>
<path fill="none" stroke="black" d="M339.88,-215.96C327.16,-177.11 353.8,-162.41 339.88,-123.97"/>
</g>
<!-- src_adls_management_messages&#45;&gt;src_utils_settings -->
<g id="edge7" class="edge">
<title>src_adls_management_messages&#45;&gt;src_utils_settings</title><style>.edge>path:hover{stroke-width:8}</style>
<path fill="none" stroke="black" d="M339.88,-412.93C331.83,-388.54 307.8,-372.58 285.67,-362.7"/>
<polygon fill="#db2f2f" stroke="black" points="286.93,-359.44 276.36,-358.83 284.25,-365.9 286.93,-359.44"/>
<path fill="none" stroke="black" d="M343.65,-449.91C344.23,-438.49 343.64,-425.33 339.88,-413.93"/>
</g>
<!-- src_utils -->
<g id="node6" class="node">
<title>src_utils</title><style>.edge>path:hover{stroke-width:8}</style>
<ellipse fill="#db2f2f" stroke="black" cx="125.88" cy="-347.94" rx="30.04" ry="18"/>
<text text-anchor="middle" x="125.88" y="-345.44" font-family="Helvetica,sans-Serif" font-size="10.00" fill="#ffffff">src.utils</text>
</g>
<!-- src_utils&#45;&gt;src_adls_management_connection -->
<g id="edge8" class="edge">
<title>src_utils&#45;&gt;src_adls_management_connection</title><style>.edge>path:hover{stroke-width:8}</style>
<path fill="none" stroke="black" d="M105.88,-281.95C109.17,-263.11 123.29,-249.48 139.82,-239.77"/>
<polygon fill="#db2f2f" stroke="black" points="141.48,-242.85 148.64,-235.04 138.17,-236.68 141.48,-242.85"/>
</g>
<!-- src_utils&#45;&gt;src_adls_management_folder_management -->
<g id="edge9" class="edge">
<title>src_utils&#45;&gt;src_adls_management_folder_management</title><style>.edge>path:hover{stroke-width:8}</style>
<path fill="none" stroke="black" d="M105.88,-215.96C114.3,-186.51 140,-164.61 165.18,-149.59"/>
<polygon fill="#db2f2f" stroke="black" points="167.07,-152.54 174.03,-144.56 163.61,-146.45 167.07,-152.54"/>
<path fill="none" stroke="black" d="M116.22,-330.66C109.78,-317.9 102.98,-299.57 105.88,-282.95"/>
<path fill="none" stroke="black" d="M105.88,-281.95C110.78,-253.93 98.07,-245.3 105.88,-217.96"/>
</g>
<!-- src_utils&#45;&gt;src_interface_file_management_interface_file_handling -->
<g id="edge10" class="edge">
<title>src_utils&#45;&gt;src_interface_file_management_interface_file_handling</title><style>.edge>path:hover{stroke-width:8}</style>
<path fill="none" stroke="black" d="M105.88,-215.96C117.12,-176.65 92.16,-162.49 105.88,-123.97"/>
</g>
<!-- src_utils_settings&#45;&gt;src_adls_management_connection -->
<g id="edge11" class="edge">
<title>src_utils_settings&#45;&gt;src_adls_management_connection</title><style>.edge>path:hover{stroke-width:8}</style>
<path fill="none" stroke="black" d="M301.88,-281.95C302.8,-261.89 288.4,-247.78 270.38,-238.02"/>
<polygon fill="#c82323" stroke="black" points="271.81,-234.82 261.29,-233.57 268.73,-241.11 271.81,-234.82"/>
<path fill="none" stroke="black" d="M271.38,-329.7C286.02,-318.52 301,-302.42 301.88,-282.95"/>
</g>
<!-- src_utils_settings&#45;&gt;src_adls_management_folder_management -->
<g id="edge12" class="edge">
<title>src_utils_settings&#45;&gt;src_adls_management_folder_management</title><style>.edge>path:hover{stroke-width:8}</style>
<path fill="none" stroke="black" d="M301.88,-281.95C303.18,-253.54 304.93,-246.23 301.88,-217.96"/>
<path fill="none" stroke="black" d="M301.88,-215.96C299.3,-192 283.23,-171.08 266.25,-155.26"/>
<polygon fill="#c82323" stroke="black" points="268.25,-152.36 258.44,-148.37 263.62,-157.61 268.25,-152.36"/>
</g>
<!-- src_utils_settings&#45;&gt;src_interface_file_management_interface_file_handling -->
<g id="edge13" class="edge">
<title>src_utils_settings&#45;&gt;src_interface_file_management_interface_file_handling</title><style>.edge>path:hover{stroke-width:8}</style>
<path fill="none" stroke="black" d="M339.88,-121.97C330.05,-94.82 306.5,-73.84 283.09,-58.82"/>
<polygon fill="#c82323" stroke="black" points="284.85,-55.8 274.49,-53.56 281.19,-61.77 284.85,-55.8"/>
<path fill="none" stroke="black" d="M301.88,-215.96C297.14,-171.98 354.94,-165.57 339.88,-123.97"/>
</g>
</g>
</svg>
