<?xml version="1.0" encoding="UTF-8" standalone="no"?>
<!DOCTYPE svg PUBLIC "-//W3C//DTD SVG 1.1//EN"
 "http://www.w3.org/Graphics/SVG/1.1/DTD/svg11.dtd">
<!-- Generated by graphviz version 2.44.1 (20200629.0846)
 -->
<!-- Title: G Pages: 1 -->
<svg width="574pt" height="647pt"
 viewBox="0.00 0.00 574.27 646.90" xmlns="http://www.w3.org/2000/svg" xmlns:xlink="http://www.w3.org/1999/xlink">
<g id="graph0" class="graph" transform="scale(1 1) rotate(0) translate(4 642.9)">
<title>G</title><style>.edge>path:hover{stroke-width:8}</style>
<polygon fill="white" stroke="transparent" points="-4,4 -4,-642.9 570.27,-642.9 570.27,4 -4,4"/>
<!-- src_adls_management -->
<g id="node1" class="node">
<title>src_adls_management</title><style>.edge>path:hover{stroke-width:8}</style>
<ellipse fill="#db2f2f" stroke="black" cx="67.88" cy="-290.96" rx="67.76" ry="21.43"/>
<text text-anchor="middle" x="67.88" y="-293.96" font-family="Helvetica,sans-Serif" font-size="10.00" fill="#ffffff">src.</text>
<text text-anchor="middle" x="67.88" y="-282.96" font-family="Helvetica,sans-Serif" font-size="10.00" fill="#ffffff">adls_management</text>
</g>
<!-- src_batch_process_phases_from_to_phase -->
<g id="node4" class="node">
<title>src_batch_process_phases_from_to_phase</title><style>.edge>path:hover{stroke-width:8}</style>
<ellipse fill="#883a3a" stroke="black" cx="402.88" cy="-28.99" rx="84.71" ry="28.98"/>
<text text-anchor="middle" x="402.88" y="-37.49" font-family="Helvetica,sans-Serif" font-size="10.00" fill="#ffffff">src.</text>
<text text-anchor="middle" x="402.88" y="-26.49" font-family="Helvetica,sans-Serif" font-size="10.00" fill="#ffffff">batch_process_phases.</text>
<text text-anchor="middle" x="402.88" y="-15.49" font-family="Helvetica,sans-Serif" font-size="10.00" fill="#ffffff">from_to_phase</text>
</g>
<!-- src_adls_management&#45;&gt;src_batch_process_phases_from_to_phase -->
<g id="edge1" class="edge">
<title>src_adls_management&#45;&gt;src_batch_process_phases_from_to_phase</title><style>.edge>path:hover{stroke-width:8}</style>
<path fill="none" stroke="black" d="M402.88,-93.98C407.22,-86.26 408.86,-77.13 409.05,-68.23"/>
<polygon fill="#db2f2f" stroke="black" points="412.54,-67.85 408.69,-57.98 405.55,-68.09 412.54,-67.85"/>
<path fill="none" stroke="black" d="M67.88,-224.97C83.73,-185.41 55.48,-159.79 86.88,-130.98 138.96,-83.2 368.27,-156.6 402.88,-94.98"/>
<path fill="none" stroke="black" d="M63.9,-269.54C62.31,-256.55 62.03,-239.65 67.88,-225.97"/>
</g>
<!-- src_interface_file_management_interface_file_handling -->
<g id="node6" class="node">
<title>src_interface_file_management_interface_file_handling</title><style>.edge>path:hover{stroke-width:8}</style>
<ellipse fill="#913030" stroke="black" cx="192.88" cy="-159.97" rx="96.75" ry="28.98"/>
<text text-anchor="middle" x="192.88" y="-168.47" font-family="Helvetica,sans-Serif" font-size="10.00" fill="#ffffff">src.</text>
<text text-anchor="middle" x="192.88" y="-157.47" font-family="Helvetica,sans-Serif" font-size="10.00" fill="#ffffff">interface_file_management.</text>
<text text-anchor="middle" x="192.88" y="-146.47" font-family="Helvetica,sans-Serif" font-size="10.00" fill="#ffffff">interface_file_handling</text>
</g>
<!-- src_adls_management&#45;&gt;src_interface_file_management_interface_file_handling -->
<g id="edge2" class="edge">
<title>src_adls_management&#45;&gt;src_interface_file_management_interface_file_handling</title><style>.edge>path:hover{stroke-width:8}</style>
<path fill="none" stroke="black" d="M67.88,-224.97C75.48,-206 91.49,-192.6 109.6,-183.14"/>
<polygon fill="#db2f2f" stroke="black" points="111.13,-186.29 118.63,-178.81 108.1,-179.98 111.13,-186.29"/>
</g>
<!-- src_adls_management_connection -->
<g id="node2" class="node">
<title>src_adls_management_connection</title><style>.edge>path:hover{stroke-width:8}</style>
<ellipse fill="#bc2f2f" stroke="black" cx="349.88" cy="-384.94" rx="70.01" ry="28.98"/>
<text text-anchor="middle" x="349.88" y="-393.44" font-family="Helvetica,sans-Serif" font-size="10.00" fill="#ffffff">src.</text>
<text text-anchor="middle" x="349.88" y="-382.44" font-family="Helvetica,sans-Serif" font-size="10.00" fill="#ffffff">adls_management.</text>
<text text-anchor="middle" x="349.88" y="-371.44" font-family="Helvetica,sans-Serif" font-size="10.00" fill="#ffffff">connection</text>
</g>
<!-- src_adls_management_folder_management -->
<g id="node3" class="node">
<title>src_adls_management_folder_management</title><style>.edge>path:hover{stroke-width:8}</style>
<ellipse fill="#a32828" stroke="black" cx="425.88" cy="-290.96" rx="72.25" ry="28.98"/>
<text text-anchor="middle" x="425.88" y="-299.46" font-family="Helvetica,sans-Serif" font-size="10.00" fill="#ffffff">src.</text>
<text text-anchor="middle" x="425.88" y="-288.46" font-family="Helvetica,sans-Serif" font-size="10.00" fill="#ffffff">adls_management.</text>
<text text-anchor="middle" x="425.88" y="-277.46" font-family="Helvetica,sans-Serif" font-size="10.00" fill="#ffffff">folder_management</text>
</g>
<!-- src_adls_management_connection&#45;&gt;src_adls_management_folder_management -->
<g id="edge3" class="edge">
<title>src_adls_management_connection&#45;&gt;src_adls_management_folder_management</title><style>.edge>path:hover{stroke-width:8}</style>
<path fill="none" stroke="black" d="M371.86,-357.33C379.75,-347.79 388.77,-336.88 397.14,-326.74"/>
<polygon fill="#bc2f2f" stroke="black" points="400.01,-328.76 403.69,-318.82 394.62,-324.3 400.01,-328.76"/>
</g>
<!-- src_adls_management_connection&#45;&gt;src_interface_file_management_interface_file_handling -->
<g id="edge4" class="edge">
<title>src_adls_management_connection&#45;&gt;src_interface_file_management_interface_file_handling</title><style>.edge>path:hover{stroke-width:8}</style>
<path fill="none" stroke="black" d="M331.68,-356.77C321.05,-337.18 312.16,-310.96 325.88,-291.96"/>
</g>
<!-- src_adls_management_folder_management&#45;&gt;src_batch_process_phases_from_to_phase -->
<g id="edge5" class="edge">
<title>src_adls_management_folder_management&#45;&gt;src_batch_process_phases_from_to_phase</title><style>.edge>path:hover{stroke-width:8}</style>
<path fill="none" stroke="black" d="M525.88,-224.97C532.37,-182.85 534.93,-163.06 506.88,-130.98 474.68,-94.16 379.11,-137.73 402.88,-94.98"/>
<path fill="none" stroke="black" d="M483.76,-273.55C504.7,-263.8 523.78,-248.75 525.88,-225.97"/>
</g>
<!-- src_adls_management_folder_management&#45;&gt;src_interface_file_management_interface_file_handling -->
<g id="edge6" class="edge">
<title>src_adls_management_folder_management&#45;&gt;src_interface_file_management_interface_file_handling</title><style>.edge>path:hover{stroke-width:8}</style>
<path fill="none" stroke="black" d="M432.94,-262.05C434.37,-249.85 433.53,-236.06 425.88,-225.97"/>
</g>
<!-- src_interface_file_management -->
<g id="node5" class="node">
<title>src_interface_file_management</title><style>.edge>path:hover{stroke-width:8}</style>
<ellipse fill="#c24747" stroke="black" cx="402.88" cy="-159.97" rx="94.51" ry="21.43"/>
<text text-anchor="middle" x="402.88" y="-162.97" font-family="Helvetica,sans-Serif" font-size="10.00" fill="#ffffff">src.</text>
<text text-anchor="middle" x="402.88" y="-151.97" font-family="Helvetica,sans-Serif" font-size="10.00" fill="#ffffff">interface_file_management</text>
</g>
<!-- src_interface_file_management&#45;&gt;src_batch_process_phases_from_to_phase -->
<g id="edge7" class="edge">
<title>src_interface_file_management&#45;&gt;src_batch_process_phases_from_to_phase</title><style>.edge>path:hover{stroke-width:8}</style>
<path fill="none" stroke="black" d="M398.04,-138.68C396,-125.42 395.54,-108.19 402.88,-94.98"/>
</g>
<!-- src_interface_file_management_interface_file_handling&#45;&gt;src_batch_process_phases_from_to_phase -->
<g id="edge8" class="edge">
<title>src_interface_file_management_interface_file_handling&#45;&gt;src_batch_process_phases_from_to_phase</title><style>.edge>path:hover{stroke-width:8}</style>
<path fill="none" stroke="black" d="M263.48,-139.97C323.07,-123.53 399.29,-101.44 402.88,-94.98"/>
</g>
<!-- src_utils -->
<g id="node7" class="node">
<title>src_utils</title><style>.edge>path:hover{stroke-width:8}</style>
<ellipse fill="#f31616" stroke="black" cx="505.88" cy="-515.92" rx="30.04" ry="18"/>
<text text-anchor="middle" x="505.88" y="-513.42" font-family="Helvetica,sans-Serif" font-size="10.00" fill="#ffffff">src.utils</text>
</g>
<!-- src_utils&#45;&gt;src_adls_management_connection -->
<g id="edge9" class="edge">
<title>src_utils&#45;&gt;src_adls_management_connection</title><style>.edge>path:hover{stroke-width:8}</style>
<path fill="none" stroke="black" d="M488.89,-500.87C464.94,-481.07 420.59,-444.4 388.41,-417.79"/>
<polygon fill="#f31616" stroke="black" points="390.44,-414.93 380.51,-411.26 385.98,-420.33 390.44,-414.93"/>
</g>
<!-- src_utils&#45;&gt;src_adls_management_folder_management -->
<g id="edge10" class="edge">
<title>src_utils&#45;&gt;src_adls_management_folder_management</title><style>.edge>path:hover{stroke-width:8}</style>
<path fill="none" stroke="black" d="M525.88,-383.94C519.23,-357.27 497.91,-335.82 476.66,-320.36"/>
<polygon fill="#f31616" stroke="black" points="478.45,-317.35 468.23,-314.53 474.46,-323.1 478.45,-317.35"/>
<path fill="none" stroke="black" d="M512.73,-498.03C521.86,-473.21 535.75,-425.52 525.88,-385.94"/>
</g>
<!-- src_utils&#45;&gt;src_batch_process_phases_from_to_phase -->
<g id="edge11" class="edge">
<title>src_utils&#45;&gt;src_batch_process_phases_from_to_phase</title><style>.edge>path:hover{stroke-width:8}</style>
<path fill="none" stroke="black" d="M525.88,-289.96C516.77,-263.01 523.27,-254.29 525.88,-225.97"/>
</g>
<!-- src_utils&#45;&gt;src_interface_file_management_interface_file_handling -->
<g id="edge12" class="edge">
<title>src_utils&#45;&gt;src_interface_file_management_interface_file_handling</title><style>.edge>path:hover{stroke-width:8}</style>
<path fill="none" stroke="black" d="M525.88,-289.96C521.07,-275.71 518.42,-271.61 506.88,-261.97 476.66,-236.7 449.67,-257.37 425.88,-225.97"/>
<path fill="none" stroke="black" d="M525.88,-383.94C516.29,-344.2 538.98,-330.68 525.88,-291.96"/>
</g>
<!-- src_utils_messages -->
<g id="node8" class="node">
<title>src_utils_messages</title><style>.edge>path:hover{stroke-width:8}</style>
<ellipse fill="#e72222" stroke="black" cx="339.88" cy="-609.91" rx="43.68" ry="28.98"/>
<text text-anchor="middle" x="339.88" y="-618.41" font-family="Helvetica,sans-Serif" font-size="10.00" fill="#ffffff">src.</text>
<text text-anchor="middle" x="339.88" y="-607.41" font-family="Helvetica,sans-Serif" font-size="10.00" fill="#ffffff">utils.</text>
<text text-anchor="middle" x="339.88" y="-596.41" font-family="Helvetica,sans-Serif" font-size="10.00" fill="#ffffff">messages</text>
</g>
<!-- src_utils_messages&#45;&gt;src_adls_management_folder_management -->
<g id="edge13" class="edge">
<title>src_utils_messages&#45;&gt;src_adls_management_folder_management</title><style>.edge>path:hover{stroke-width:8}</style>
<path fill="none" stroke="black" d="M359.49,-583.95C367.97,-572.47 377.59,-558.42 384.88,-544.91 420.99,-478.04 421.69,-457.28 447.88,-385.94"/>
</g>
<!-- src_utils_messages&#45;&gt;src_batch_process_phases_from_to_phase -->
<g id="edge14" class="edge">
<title>src_utils_messages&#45;&gt;src_batch_process_phases_from_to_phase</title><style>.edge>path:hover{stroke-width:8}</style>
<path fill="none" stroke="black" d="M383.99,-607.68C430.87,-603.89 503.81,-590.46 544.88,-544.91 573.42,-513.27 563.88,-493.55 563.88,-450.93 563.88,-450.93 563.88,-450.93 563.88,-383.94 563.88,-328.69 555.29,-315.02 539.88,-261.97 535.1,-245.48 524.3,-243.06 525.88,-225.97"/>
</g>
<!-- src_utils_messages&#45;&gt;src_interface_file_management_interface_file_handling -->
<g id="edge15" class="edge">
<title>src_utils_messages&#45;&gt;src_interface_file_management_interface_file_handling</title><style>.edge>path:hover{stroke-width:8}</style>
<path fill="none" stroke="black" d="M425.88,-224.97C424.66,-223.35 340.15,-200.41 273.27,-182.45"/>
<polygon fill="#e72222" stroke="black" points="274.1,-179.05 263.54,-179.84 272.29,-185.81 274.1,-179.05"/>
<path fill="none" stroke="black" d="M251.88,-383.94C259.53,-361.87 312.37,-310.67 325.88,-291.96"/>
<path fill="none" stroke="black" d="M318.06,-584.42C284.48,-543.64 226.54,-459.08 251.88,-385.94"/>
<path fill="none" stroke="black" d="M325.88,-289.96C334.69,-277.77 333.35,-271.61 344.88,-261.97 375.11,-236.7 449.67,-257.37 425.88,-225.97"/>
</g>
<!-- src_utils_settings -->
<g id="node9" class="node">
<title>src_utils_settings</title><style>.edge>path:hover{stroke-width:8}</style>
<ellipse fill="#c82323" stroke="black" cx="339.88" cy="-515.92" rx="36.12" ry="28.98"/>
<text text-anchor="middle" x="339.88" y="-524.42" font-family="Helvetica,sans-Serif" font-size="10.00" fill="#ffffff">src.</text>
<text text-anchor="middle" x="339.88" y="-513.42" font-family="Helvetica,sans-Serif" font-size="10.00" fill="#ffffff">utils.</text>
<text text-anchor="middle" x="339.88" y="-502.42" font-family="Helvetica,sans-Serif" font-size="10.00" fill="#ffffff">settings</text>
</g>
<!-- src_utils_messages&#45;&gt;src_utils_settings -->
<g id="edge16" class="edge">
<title>src_utils_messages&#45;&gt;src_utils_settings</title><style>.edge>path:hover{stroke-width:8}</style>
<path fill="none" stroke="black" d="M339.88,-580.81C339.88,-572.77 339.88,-563.87 339.88,-555.32"/>
<polygon fill="#e72222" stroke="black" points="343.38,-555.16 339.88,-545.16 336.38,-555.16 343.38,-555.16"/>
</g>
<!-- src_utils_settings&#45;&gt;src_adls_management_connection -->
<g id="edge17" class="edge">
<title>src_utils_settings&#45;&gt;src_adls_management_connection</title><style>.edge>path:hover{stroke-width:8}</style>
<path fill="none" stroke="black" d="M270.88,-449.93C271.41,-434.3 281.03,-421.83 293.39,-412.19"/>
<polygon fill="#c82323" stroke="black" points="295.66,-414.88 301.84,-406.27 291.64,-409.15 295.66,-414.88"/>
</g>
<!-- src_utils_settings&#45;&gt;src_adls_management_folder_management -->
<g id="edge18" class="edge">
<title>src_utils_settings&#45;&gt;src_adls_management_folder_management</title><style>.edge>path:hover{stroke-width:8}</style>
<path fill="none" stroke="black" d="M270.88,-449.93C273.3,-377.95 369.41,-454.55 428.88,-413.93 441.3,-405.45 442.7,-400.05 447.88,-385.94"/>
<path fill="none" stroke="black" d="M447.88,-383.94C454.36,-366.29 450.64,-346.02 444.55,-329.01"/>
<polygon fill="#c82323" stroke="black" points="447.69,-327.42 440.75,-319.42 441.18,-330 447.69,-327.42"/>
</g>
<!-- src_utils_settings&#45;&gt;src_interface_file_management_interface_file_handling -->
<g id="edge19" class="edge">
<title>src_utils_settings&#45;&gt;src_interface_file_management_interface_file_handling</title><style>.edge>path:hover{stroke-width:8}</style>
<path fill="none" stroke="black" d="M270.88,-449.93C271.88,-420.28 242.17,-413.97 251.88,-385.94"/>
<path fill="none" stroke="black" d="M308.93,-501.03C290.24,-490.3 270.13,-473.46 270.88,-450.93"/>
</g>
</g>
</svg>
